<svg xmlns="http://www.w3.org/2000/svg" viewBox="0 0 109.14 65.84"><title>Asset 1</title><g id="Layer_2" data-name="Layer 2"><g id="Layer_1-2" data-name="Layer 1"><path d="M51.62,0C62,0,72.46.1,82.88,0a10.77,10.77,0,0,1,8.93,4.06c4.73,5.65,9.59,11.2,14.36,16.82,3.94,4.63,4,9.06.06,13.65C101.34,40.29,96.38,46,91.49,51.76a9.89,9.89,0,0,1-8,3.69c-21.39,0-42.78,0-64.17,0-5.27,0-8.6-3.38-8.61-8.71q-.06-18.93,0-37.88c0-5.46,3.36-8.78,8.8-8.8C30.23,0,40.92,0,51.62,0Zm0,2.25q-15.76,0-31.51,0C15.25,2.3,13,4.5,13,9.33q0,18.38,0,36.75c0,4.87,2.23,7.1,7.08,7.11,21,0,42,0,63,0A8.48,8.48,0,0,0,90,50c4.81-5.71,9.72-11.32,14.55-17,3.06-3.61,3.07-6.82,0-10.4-4.82-5.68-9.74-11.3-14.54-17a8.7,8.7,0,0,0-7.21-3.3C72.46,2.33,62.05,2.28,51.64,2.28Z"/><path d="M103.09,27.78a6.24,6.24,0,1,1-6.33-6.25A6.21,6.21,0,0,1,103.09,27.78Zm-2.27,0a4,4,0,0,0-3.79-4,3.93,3.93,0,1,0-.35,7.86A4,4,0,0,0,100.82,27.77Z"/><path d="M78.63,61.13a8.41,8.41,0,0,1-6.25,2.47c-21,0-42,0-63,0-4.85,0-7.08-2.23-7.09-7.1q0-18.37,0-36.75c0-3,.9-5,2.78-6.1,0-.84,0-1.68,0-2.53-3.18,1.21-5,4.08-5,8.14Q0,38.17,0,57.11c0,5.32,3.35,8.7,8.61,8.71q32.09,0,64.17,0a9.88,9.88,0,0,0,8-3.69l.87-1C80.64,61.13,79.64,61.12,78.63,61.13Z"/></g></g></svg>